# Blender v2.78 (sub 0) OBJ File: 'steve2.blend'
# www.blender.org
o Steve_Head
v -0.499755 1.498645 0.137227
v -0.245864 1.499526 0.140228
v -0.243409 1.502676 -0.120535
v -0.497301 1.501795 -0.123536
v -0.497599 0.748580 0.128228
v -0.243707 0.749461 0.131229
v -0.495145 0.751730 -0.132535
v -0.241253 0.752611 -0.129534
v 0.500245 0.742941 0.137227
v 0.246353 0.742060 0.140228
v 0.243899 0.738911 -0.120535
v 0.497791 0.739792 -0.123536
v 0.498088 1.493007 0.128228
v 0.244196 1.492126 0.131229
v 0.495634 1.489857 -0.132535
v 0.241742 1.488976 -0.129534
v 0.225175 1.996696 0.250000
v 0.222227 1.495741 0.250000
v 0.222227 1.495741 0.250000
v 0.225175 1.996696 0.250000
v 0.225175 1.996696 -0.250000
v -0.221738 2.000000 -0.250000
v -0.221738 2.000000 0.250000
v -0.224685 1.499045 0.250000
v 0.225175 1.996696 -0.250000
v -0.224685 1.499045 -0.250000
v 0.222227 1.495741 -0.250000
v 0.222227 1.495741 -0.250000
v -0.252626 1.498792 0.130398
v 0.260315 1.498792 0.130398
v 0.260315 1.498792 -0.130398
v -0.252627 1.498792 -0.130398
v -0.252626 0.748668 0.130398
v 0.260315 0.748668 0.130398
v -0.252626 0.748668 -0.130398
v 0.260315 0.748668 -0.130398
v 0.000345 0.750123 0.130398
v 0.254253 0.750123 0.130398
v 0.254253 0.750123 -0.130398
v 0.000345 0.750123 -0.130398
v 0.000345 0.000000 0.130398
v 0.254253 0.000000 0.130398
v 0.000345 0.000000 -0.130398
v 0.254253 0.000000 -0.130398
v -0.254252 0.750123 0.130398
v -0.000345 0.750123 0.130398
v -0.000345 0.750123 -0.130398
v -0.254253 0.750123 -0.130398
v -0.254252 0.000000 0.130398
v -0.000345 0.000000 0.130398
v -0.254252 0.000000 -0.130398
v -0.000345 0.000000 -0.130398
vt 0.6899 0.4956
vt 0.7482 0.3804
vt 0.7487 0.4956
vt 0.6911 0.3772
vt 0.7475 0.0084
vt 0.7532 0.3753
vt 0.6918 0.3754
vt 0.7499 -0.0021
vt 0.6901 0.0040
vt 0.6883 0.3750
vt 0.7488 0.0001
vt 0.7488 0.3691
vt 0.6876 0.0043
vt 0.7524 0.3658
vt 0.6888 0.3696
vt 0.8131 0.4961
vt 0.7597 0.3893
vt 0.8142 0.3880
vt 0.8107 0.3859
vt 0.7597 0.4997
vt 0.7592 0.3859
vt 0.7472 0.0020
vt 0.6930 0.3647
vt 0.6919 0.0021
vt 0.6971 0.0068
vt 0.7505 0.3725
vt 0.6923 0.3722
vt 0.7522 0.0036
vt 0.6906 0.3786
vt 0.6888 0.0098
vt 0.7567 0.3632
vt 0.6890 0.0085
vt 0.7561 0.0070
vt 0.6869 0.3782
vt 0.7493 0.5007
vt 0.6863 0.5007
vt 0.3767 0.7493
vt 0.3759 0.5035
vt 0.3767 0.7493
vt 0.2491 0.7560
vt 0.1258 0.9999
vt 0.1255 0.7559
vt 0.5000 0.5025
vt 0.3759 0.5035
vt 0.1258 0.9999
vt 0.1255 0.7559
vt 0.3692 0.7619
vt 0.2540 0.9918
vt 0.2540 0.7619
vt 1.0000 1.0000
vt 1.0000 0.0000
vt 1.0000 1.0000
vt 0.1242 0.7503
vt 0.0013 0.5033
vt 0.1238 0.5013
vt 0.2508 0.5033
vt 0.1262 0.7475
vt 0.1257 0.5033
vt 0.1262 0.7475
vt 0.1257 0.5033
vt 0.3749 0.5064
vt 0.2501 0.7473
vt 0.2493 0.5042
vt 0.4394 0.5011
vt 0.3146 0.3735
vt 0.4410 0.3801
vt 0.6255 0.0057
vt 0.5057 0.3700
vt 0.6222 0.3753
vt 0.5000 0.3708
vt 0.4412 -0.0052
vt 0.5000 -0.0052
vt 0.3092 -0.0025
vt 0.2496 0.3734
vt 0.3092 0.3734
vt 0.3127 0.3722
vt 0.4389 0.0002
vt 0.4389 0.3722
vt 0.1276 0.4966
vt 0.1854 0.3802
vt 0.1837 0.4944
vt 0.1233 0.4957
vt 0.0635 0.3744
vt 0.1246 0.3728
vt 0.2502 0.0014
vt 0.1906 0.3678
vt 0.2502 0.3705
vt 0.0008 0.0096
vt 0.0595 0.3777
vt 0.0595 0.0096
vt 0.0009 0.0101
vt 0.0630 0.3734
vt 0.0009 0.3734
vt 0.0654 0.0035
vt 0.1252 0.3758
vt 0.0656 0.3759
vt 0.1304 0.4867
vt 0.1778 0.4012
vt 0.1791 0.4899
vt 0.1228 0.4869
vt 0.0621 0.3805
vt 0.1227 0.3775
vt 0.2502 0.0014
vt 0.1880 0.3705
vt 0.2502 0.3732
vt 0.1875 0.0001
vt 0.1259 0.3708
vt 0.1259 0.0001
vt 0.0038 -0.0023
vt 0.0585 0.3679
vt -0.0037 0.3681
vt 0.0680 0.3652
vt 0.1225 0.0039
vt 0.1225 0.3652
vt 0.1292 0.4961
vt 0.1870 0.3846
vt 0.1858 0.4961
vt 0.6893 0.3804
vt 0.6938 0.0019
vt 0.7516 0.3693
vt 0.6883 0.0060
vt 0.7512 0.0006
vt 0.7579 0.4988
vt 0.8113 0.4997
vt 0.7483 0.3646
vt 0.7552 0.0070
vt 0.7539 0.3724
vt 0.6896 0.3647
vt 0.7499 0.3782
vt 0.2491 0.9999
vt 0.5007 0.7500
vt 0.3692 0.9918
vt 1.0000 0.0000
vt 0.0021 0.7535
vt 0.2511 0.7488
vt 0.3749 0.7496
vt 0.3130 0.4945
vt 0.5090 0.0005
vt 0.4412 0.3708
vt 0.2496 -0.0025
vt 0.3127 0.0002
vt 0.1293 0.3824
vt 0.0623 0.4973
vt 0.1906 -0.0013
vt 0.0008 0.3777
vt 0.0630 0.0101
vt 0.1249 0.0033
vt 0.1291 0.3980
vt 0.0622 0.4899
vt 0.1880 -0.0013
vt 0.1875 0.3708
vt 0.0660 -0.0025
vt 0.0680 0.0039
vt 0.1303 0.3846
vn -0.5852 0.5687 0.5781
vn 0.5815 0.5862 -0.5641
vn -0.5731 0.5823 -0.5766
vn 0.5731 -0.5823 0.5766
vn 0.5694 0.5720 0.5904
vn -0.5694 -0.5720 -0.5904
vn -0.5815 -0.5862 0.5641
vn 0.5852 -0.5687 -0.5781
vn 0.5852 -0.5687 0.5781
vn -0.5815 -0.5862 -0.5641
vn 0.5731 -0.5823 -0.5766
vn -0.5731 0.5823 0.5766
vn -0.5694 -0.5720 0.5904
vn 0.5694 0.5720 -0.5904
vn 0.5815 0.5862 0.5641
vn -0.5852 0.5687 -0.5781
vn 0.0023 0.3161 0.9487
vn 0.4471 -0.0026 0.8944
vn 0.4472 -0.0026 0.8944
vn -0.5735 0.5812 -0.5773
vn 0.0052 0.7074 0.7067
vn -0.5811 -0.5734 0.5774
vn -0.0023 -0.3163 0.9486
vn -0.0052 -0.7066 0.7076
vn -0.5811 -0.5734 -0.5774
vn -0.5773 0.5773 0.5773
vn 0.5773 0.5773 -0.5773
vn -0.5773 0.5773 -0.5773
vn -0.5773 -0.5773 0.5773
vn 0.5773 0.5773 0.5773
vn -0.5773 -0.5773 -0.5773
vn 0.5773 -0.5773 0.5773
vn 0.5773 -0.5773 -0.5773
vn -0.5735 0.5812 0.5773
s 1
f 1/1/1 3/2/2 4/3/3
f 1/4/1 6/5/4 2/6/5
f 1/7/1 7/8/6 5/9/7
f 2/10/5 8/11/8 3/12/2
f 8/13/8 4/14/3 3/15/2
f 5/16/7 8/17/8 6/18/4
f 9/19/9 11/20/10 12/21/11
f 9/22/9 14/23/12 10/24/13
f 9/25/9 15/26/14 13/27/15
f 10/28/13 16/29/16 11/30/10
f 16/31/16 12/32/11 11/33/10
f 13/34/15 16/35/16 14/36/12
f 17/37/17 19/38/18 20/39/19
f 22/40/20 17/41/17 21/42/21
f 17/37/17 24/43/22 18/44/23
f 21/42/21 20/45/19 25/46/18
f 27/47/24 24/48/22 26/49/25
f 18/50/23 28/51/19 19/52/18
f 25/53/18 19/54/18 28/55/19
f 26/56/25 21/57/21 27/58/24
f 27/58/24 25/59/18 28/60/19
f 24/61/22 22/62/20 26/63/25
f 29/64/26 31/65/27 32/66/28
f 33/67/29 30/68/30 29/69/26
f 29/70/26 35/71/31 33/72/29
f 34/73/32 31/74/27 30/75/30
f 31/76/27 35/77/31 32/78/28
f 35/79/31 34/80/32 33/81/29
f 38/82/30 40/83/28 37/84/26
f 41/85/29 38/86/30 37/87/26
f 41/88/29 40/89/28 43/90/31
f 42/91/32 39/92/27 38/93/30
f 44/94/33 40/95/28 39/96/27
f 43/97/31 42/98/32 41/99/29
f 46/100/30 48/101/28 45/102/26
f 49/103/29 46/104/30 45/105/26
f 49/106/29 48/107/28 51/108/31
f 50/109/32 47/110/27 46/111/30
f 47/112/27 51/113/31 48/114/28
f 51/115/31 50/116/32 49/117/29
f 1/1/1 2/118/5 3/2/2
f 1/4/1 5/119/7 6/5/4
f 1/7/1 4/120/3 7/8/6
f 2/10/5 6/121/4 8/11/8
f 8/13/8 7/122/6 4/14/3
f 5/16/7 7/123/6 8/17/8
f 9/19/9 10/124/13 11/20/10
f 9/22/9 13/125/15 14/23/12
f 9/25/9 12/126/11 15/26/14
f 10/28/13 14/127/12 16/29/16
f 16/31/16 15/128/14 12/32/11
f 13/34/15 15/129/14 16/35/16
f 17/37/17 18/44/23 19/38/18
f 22/40/20 23/130/34 17/41/17
f 17/37/17 23/131/34 24/43/22
f 21/42/21 17/41/17 20/45/19
f 27/47/24 18/132/23 24/48/22
f 18/50/23 27/133/24 28/51/19
f 25/53/18 20/134/19 19/54/18
f 26/56/25 22/135/20 21/57/21
f 27/58/24 21/57/21 25/59/18
f 24/61/22 23/136/34 22/62/20
f 29/64/26 30/137/30 31/65/27
f 33/67/29 34/138/32 30/68/30
f 29/70/26 32/139/28 35/71/31
f 34/73/32 36/140/33 31/74/27
f 31/76/27 36/141/33 35/77/31
f 35/79/31 36/142/33 34/80/32
f 38/82/30 39/143/27 40/83/28
f 41/85/29 42/144/32 38/86/30
f 41/88/29 37/145/26 40/89/28
f 42/91/32 44/146/33 39/92/27
f 44/94/33 43/147/31 40/95/28
f 43/97/31 44/148/33 42/98/32
f 46/100/30 47/149/27 48/101/28
f 49/103/29 50/150/32 46/104/30
f 49/106/29 45/151/26 48/107/28
f 50/109/32 52/152/33 47/110/27
f 47/112/27 52/153/33 51/113/31
f 51/115/31 52/154/33 50/116/32
